<svg width="25" height="24" viewBox="0 0 25 24" fill="none" xmlns="http://www.w3.org/2000/svg">
<g clip-path="url(#clip0_10980_8685)">
<path d="M13.666 3C8.69602 3 4.66602 7.03 4.66602 12H1.66602L5.55602 15.89L5.62602 16.03L9.66602 12H6.66602C6.66602 8.13 9.79602 5 13.666 5C17.536 5 20.666 8.13 20.666 12C20.666 15.87 17.536 19 13.666 19C11.736 19 9.98602 18.21 8.72602 16.94L7.30602 18.36C8.93602 19.99 11.176 21 13.666 21C18.636 21 22.666 16.97 22.666 12C22.666 7.03 18.636 3 13.666 3ZM12.666 8V13L16.946 15.54L17.666 14.33L14.166 12.25V8H12.666Z" fill="#9AA1B0"/>
</g>
<defs>
<clipPath id="clip0_10980_8685">
<rect width="24" height="24" fill="white" transform="translate(0.666016)"/>
</clipPath>
</defs>
</svg>
